inDegrees=yes
name=ik_lifting_orientations
DataType=double
version=3
OpenSimVersion=4.5-2024-01-10-34fd6af
endheader
time	pelvis_tilt	pelvis_list	pelvis_rotation	pelvis_tx	pelvis_ty	pelvis_tz	hip_flexion_r	hip_adduction_r	hip_rotation_r	knee_angle_r	knee_angle_r_beta	ankle_angle_r	subtalar_angle_r	mtp_angle_r	hip_flexion_l	hip_adduction_l	hip_rotation_l	knee_angle_l	knee_angle_l_beta	ankle_angle_l	subtalar_angle_l	mtp_angle_l	lumbar_extension	lumbar_bending	lumbar_rotation	arm_flex_r	arm_add_r	arm_rot_r	elbow_flex_r	pro_sup_r	wrist_flex_r	wrist_dev_r	arm_flex_l	arm_add_l	arm_rot_l	elbow_flex_l	pro_sup_l	wrist_flex_l	wrist_dev_l
0.62	2.741086571648881	4.02174640111674	-76.68736764180741	0	0.9399999998679526	0	44.6545877946966	-11.68786443289072	0	59.18326594277092	1.032942852784778	-5.786840777444384	0	0	44.6545877946966	-11.68786443289072	0	59.18326594277092	1.032942852784778	-5.786840777444384	0	0	-47.35761950585856	30.47261510146846	36.08224309484643	29.52568268426517	-60.20768502412718	-11.0915081358895	17.98720255852107	4.076271688417647	0	0	0	-9.546846435797274	0	85.98519631954765	4.076271688417647	0	0
0.63	2.811909635693014	4.153320365876517	-76.3522084825173	0	0.9399999998679526	0	44.65475520189857	-11.68499931959156	0	59.18357635540415	1.032948270507268	-5.785100858130501	0	0	44.65475520189857	-11.68499931959156	0	59.18357635540415	1.032948270507268	-5.785100858130501	0	0	-46.22383358114949	30.58409844044555	34.80309358926945	29.24134639973029	-59.63848753084715	-10.85076610207692	18.09977771170306	4.074894989231398	0	0	0	-9.548201939457236	0	85.98655212084101	4.074894989231398	0	0
0.64	2.933078396653409	4.330978624337932	-75.94175366626183	0	0.9399999998679526	0	44.65489209762846	-11.68265518999289	0	59.18382997109637	1.032952696936132	-5.783677399192463	0	0	44.65489209762846	-11.68265518999289	0	59.18382997109637	1.032952696936132	-5.783677399192463	0	0	-44.9115173601458	30.86595730319351	33.10519190382725	29.07010861119787	-58.85951699561606	-10.49575211569947	18.54876986539473	4.073769501055091	0	0	0	-9.549309838362145	0	85.98766052435414	4.073769501055091	0	0
0.65	2.961773020698859	4.485152245082673	-74.90977722954236	0	0.9399999998679526	0	44.65535864477662	-11.67468523953665	0	59.1846945666767	1.032967786975707	-5.778842373368336	0	0	44.65535864477662	-11.67468523953665	0	59.1846945666767	1.032967786975707	-5.778842373368336	0	0	-43.69014550540204	31.56553489456235	31.34509883594507	30.26408804403229	-58.31275980357513	-9.215361221112866	18.27650272128365	4.069932577153564	0	0	0	-9.553087582503522	0	85.99143920508847	4.069932577153564	0	0
0.66	3.138177683562618	4.824209917989398	-74.03138762676157	0	0.9399999998679526	0	44.65576520407348	-11.66774896220093	0	59.18544719278042	1.032980922779253	-5.774638284178781	0	0	44.65576520407348	-11.66774896220093	0	59.18544719278042	1.032980922779253	-5.774638284178781	0	0	-43.6520213741442	31.94543906608751	31.41585691346918	31.43009490426782	-58.82964426047663	-8.44706137672865	17.96501508417666	4.066589493699512	0	0	0	-9.556378410025125	0	85.99473154164563	4.066589493699512	0	0
0.67	3.291664008525713	5.086027615736244	-73.71712359686391	0	0.9399999998679526	0	44.65621831512268	-11.66003840244653	0	59.18628579520915	1.03299555915275	-5.76997065172005	0	0	44.65621831512268	-11.66003840244653	0	59.18628579520915	1.03299555915275	-5.76997065172005	0	0	-43.47880836244187	31.94499429000853	31.40914486656821	32.10275607287677	-58.80235900476713	-7.405538218838477	17.47656821959679	4.062862925924544	0	0	0	-9.560046966737369	0	85.99840154170543	4.062862925924544	0	0
0.68	3.406140042934431	5.262970011794182	-73.51502684323302	0	0.9399999998679526	0	44.65646290415972	-11.65589306144332	0	59.18673911421844	1.033003471062024	-5.767464651826757	0	0	44.65646290415972	-11.65589306144332	0	59.18673911421844	1.033003471062024	-5.767464651826757	0	0	-42.69967085765803	31.88301649136128	30.66975338563448	32.44880354968662	-58.21296959605212	-6.130363455923404	17.08509295788749	4.060849795931308	0	0	0	-9.562029905854137	0	86.00038411379163	4.060849795931308	0	0
0.6899999999999999	3.387998762890546	5.267092614514237	-73.49865966813719	0	0.9399999998679526	0	44.65685877580464	-11.64920508432101	0	59.18747337290935	1.033016286293742	-5.76342631247073	0	0	44.65685877580464	-11.64920508432101	0	59.18747337290935	1.033016286293742	-5.76342631247073	0	0	-42.55011301685109	32.15298498702391	30.06411351440797	33.6497259807742	-57.88680909182533	-4.261817793716932	16.44306320233876	4.057589876251932	0	0	0	-9.565242075483379	0	86.00359455077395	4.057589876251932	0	0
0.7	3.37916602026122	5.200814561287593	-73.83676480438758	0	0.9399999998679526	0	44.65713652663958	-11.64452363218694	0	59.18798866609851	1.033025279856506	-5.760602291113952	0	0	44.65713652663958	-11.64452363218694	0	59.18798866609851	1.033025279856506	-5.760602291113952	0	0	-42.89292756394986	32.09864529821127	30.31550245886822	34.06956998989776	-57.99402043607916	-3.615578491620238	16.12265011851477	4.055301992221546	0	0	0	-9.567496860062624	0	86.00584770701765	4.055301992221546	0	0
0.71	3.213146728601157	4.858444596992089	-74.79944740779899	0	0.9399999998679526	0	44.65728539056612	-11.64206050990691	0	59.18826867372824	1.033030166911575	-5.759122131558401	0	0	44.65728539056612	-11.64206050990691	0	59.18826867372824	1.033030166911575	-5.759122131558401	0	0	-43.78565074431507	31.57985661684896	31.40980012905818	33.95100869992093	-57.98200238636468	-3.689468981170816	16.20090714148003	4.054069137483517	0	0	0	-9.568717466962127	0	86.00706185043572	4.054069137483517	0	0
0.72	3.048947922958023	4.577623165670517	-75.43321486756705	0	0.9399999998679526	0	44.65752423970124	-11.63806814443587	0	59.18871382056223	1.033037936189483	-5.756719230792969	0	0	44.65752423970124	-11.63806814443587	0	59.18871382056223	1.033037936189483	-5.756719230792969	0	0	-44.46962812753839	31.29678741147329	32.24624603958993	33.33801527138983	-57.803496290025	-4.143294443059996	16.59780419917721	4.052097751775583	0	0	0	-9.570663506999853	0	86.00900331382488	4.052097751775583	0	0
0.73	3.042103546239686	4.46964718978001	-75.86696822990702	0	0.9399999998679526	0	44.65791590122393	-11.63151023548101	0	59.18944149962542	1.033050636585034	-5.752773081096119	0	0	44.65791590122393	-11.63151023548101	0	59.18944149962542	1.033050636585034	-5.752773081096119	0	0	-44.81281691737932	31.0116414248088	32.72810941621088	32.76066834758158	-57.72920510825516	-4.601792124495463	16.88529252926884	4.048868269857857	0	0	0	-9.573848553688261	0	86.01218377668457	4.048868269857857	0	0
